<svg width="101" height="101" viewBox="0 0 101 101" fill="none" xmlns="http://www.w3.org/2000/svg">
<path fill-rule="evenodd" clip-rule="evenodd" d="M12.9219 17.5703C14.6478 17.5703 16.0469 18.9694 16.0469 20.6953V36.3203H31.6719C33.3978 36.3203 34.7969 37.7194 34.7969 39.4453C34.7969 41.1712 33.3978 42.5703 31.6719 42.5703H12.9219C11.196 42.5703 9.79688 41.1712 9.79688 39.4453V20.6953C9.79688 18.9694 11.196 17.5703 12.9219 17.5703Z" fill="#A31886"/>
<path fill-rule="evenodd" clip-rule="evenodd" d="M43.1927 13.7228C50.4678 12.2734 58.0094 13.0142 64.8634 15.8516C71.7174 18.689 77.5759 23.4954 81.6978 29.663C85.8197 35.8305 88.0198 43.0819 88.0198 50.5C88.0198 57.9181 85.8197 65.1696 81.6978 71.3371C77.5759 77.5046 71.7174 82.311 64.8634 85.1484C58.0094 87.9858 50.4678 88.7266 43.1927 87.2772C35.9176 85.8278 29.2358 82.2532 23.9925 77.0057C22.7726 75.7848 22.7734 73.8062 23.9943 72.5863C25.2152 71.3664 27.1938 71.3672 28.4137 72.5881C32.7831 76.961 38.3513 79.9398 44.4139 81.1477C50.4765 82.3555 56.7611 81.7382 62.4728 79.3737C68.1845 77.0092 73.0666 73.0038 76.5015 67.8642C79.9364 62.7246 81.7698 56.6818 81.7698 50.5C81.7698 44.3183 79.9364 38.2754 76.5015 33.1358C73.0666 27.9962 68.1845 23.9908 62.4728 21.6263C56.7611 19.2619 50.4765 18.6445 44.4139 19.8523C38.3513 21.0602 32.7831 24.039 28.4137 28.4119L28.4096 28.4161L15.1283 41.6583C13.9061 42.8769 11.9275 42.874 10.7089 41.6518C9.49032 40.4296 9.49324 38.451 10.7154 37.2324L23.9925 23.9943C23.9932 23.9936 23.9939 23.9929 23.9946 23.9922C29.2376 18.7458 35.9185 15.172 43.1927 13.7228Z" fill="#A31886"/>
<path fill-rule="evenodd" clip-rule="evenodd" d="M45.2568 27.1984C45.2492 26.4275 45.8679 25.7964 46.6388 25.7889L54.5348 25.7111C55.3056 25.7035 55.9367 26.3223 55.9443 27.0932C55.9519 27.8641 55.3331 28.4952 54.5622 28.5028L46.6663 28.5805C45.8954 28.5881 45.2643 27.9693 45.2568 27.1984Z" fill="#A31886"/>
<path fill-rule="evenodd" clip-rule="evenodd" d="M48.8103 25.7815C49.5745 25.883 50.1117 26.5848 50.0102 27.349L48.1723 41.1863C48.1448 41.3929 48.0714 41.5908 47.9575 41.7654L44.2988 47.3722L44.5003 67.8388C44.5003 67.8402 44.5003 67.8417 44.5003 67.8431C44.5078 68.2127 44.6598 68.5647 44.9239 68.8236C45.1879 69.0825 45.5429 69.2276 45.9126 69.2278C45.914 69.2278 45.9154 69.2278 45.9169 69.2278L56.1116 69.1274C56.1131 69.1274 56.1145 69.1274 56.116 69.1274C56.4856 69.1198 56.8375 68.9678 57.0964 68.7038C57.3553 68.4398 57.5003 68.0849 57.5006 67.7153C57.5006 67.7138 57.5006 67.7123 57.5006 67.7109L57.2991 47.2443L53.5307 41.7105C53.4134 41.5382 53.3361 41.3418 53.3046 41.1358L51.1946 27.3374C51.0781 26.5753 51.6014 25.8631 52.3635 25.7465C53.1255 25.63 53.8378 26.1533 53.9543 26.9154L56.0164 40.4008L59.8445 46.0222C59.9996 46.25 60.0838 46.5186 60.0865 46.7941L60.2924 67.704C60.2951 68.8085 59.8631 69.8697 59.0898 70.6584C58.3165 71.447 57.264 71.8998 56.1597 71.9188L56.1494 71.919L45.9237 72.0196C44.8192 72.0223 43.758 71.5903 42.9693 70.817C42.1807 70.0438 41.7279 68.9913 41.7089 67.8869L41.7087 67.8766L41.503 46.9771C41.5003 46.7015 41.5792 46.4313 41.7298 46.2005L45.4465 40.5049L47.2428 26.9814C47.3443 26.2172 48.0461 25.68 48.8103 25.7815Z" fill="#A31886"/>
<path fill-rule="evenodd" clip-rule="evenodd" d="M41.5419 50.9252C41.5343 50.1543 42.1531 49.5232 42.924 49.5157L58.7158 49.3602C59.4867 49.3526 60.1178 49.9714 60.1254 50.7423C60.133 51.5132 59.5142 52.1443 58.7433 52.1518L42.9515 52.3073C42.1806 52.3149 41.5495 51.6961 41.5419 50.9252Z" fill="#A31886"/>
<path fill-rule="evenodd" clip-rule="evenodd" d="M41.678 64.7431C41.6704 63.9722 42.2892 63.3411 43.0601 63.3335L58.8519 63.1781C59.6228 63.1705 60.2539 63.7893 60.2615 64.5602C60.2691 65.331 59.6503 65.9621 58.8794 65.9697L43.0876 66.1252C42.3167 66.1328 41.6856 65.514 41.678 64.7431Z" fill="#A31886"/>
</svg>
