<svg width="81" height="80" viewBox="0 0 81 80" fill="none" xmlns="http://www.w3.org/2000/svg">
<g clip-path="url(#clip0_144_3631)">
<path d="M40.5 0C18.725 0 1.01 17.405 0.51 39.06C0.97 20.165 15.34 5 33 5C50.95 5 65.5 20.67 65.5 40C65.5 44.14 68.86 47.5 73 47.5C77.14 47.5 80.5 44.14 80.5 40C80.5 17.91 62.59 0 40.5 0ZM40.5 80C62.275 80 79.99 62.595 80.49 40.94C80.03 59.835 65.66 75 48 75C30.05 75 15.5 59.33 15.5 40C15.5 35.86 12.14 32.5 8 32.5C3.86 32.5 0.5 35.86 0.5 40C0.5 62.09 18.41 80 40.5 80Z" fill="#A31886"/>
<path fill-rule="evenodd" clip-rule="evenodd" d="M41 48.4688C41.8802 48.4688 42.5938 49.1823 42.5938 50.0625V61.2188C42.5938 62.099 41.8802 62.8125 41 62.8125C40.1198 62.8125 39.4062 62.099 39.4062 61.2188V50.0625C39.4062 49.1823 40.1198 48.4688 41 48.4688Z" fill="#A31886"/>
<path fill-rule="evenodd" clip-rule="evenodd" d="M31.4375 61.2188C31.4375 60.3385 32.151 59.625 33.0312 59.625H48.9688C49.849 59.625 50.5625 60.3385 50.5625 61.2188C50.5625 62.099 49.849 62.8125 48.9688 62.8125H33.0312C32.151 62.8125 31.4375 62.099 31.4375 61.2188Z" fill="#A31886"/>
<path fill-rule="evenodd" clip-rule="evenodd" d="M29.9091 19.3295C30.1093 18.6522 30.7313 18.1875 31.4375 18.1875H50.5625C51.2687 18.1875 51.8907 18.6522 52.0909 19.3295L57.2925 36.9272C57.7192 38.3944 57.6064 39.9658 56.9747 41.3571C55.5857 44.4296 53.34 47.0364 50.5069 48.865C47.6734 50.6938 44.3725 51.6666 41 51.6666C37.6275 51.6666 34.3266 50.6938 31.4931 48.865C28.6595 47.0361 26.4136 44.4288 25.0247 41.3556C24.3935 39.9647 24.281 38.3939 24.7076 36.9272L24.7095 36.9205L29.9091 19.3295ZM32.6283 21.375L27.7682 37.8173C27.7679 37.8184 27.7677 37.8194 27.7674 37.8204C27.5543 38.5556 27.6112 39.3429 27.9279 40.0399L27.9293 40.0428C29.0657 42.5572 30.9033 44.6905 33.2216 46.1868C35.54 47.6832 38.2407 48.4791 41 48.4791C43.7593 48.4791 46.4601 47.6832 48.7784 46.1868C51.0968 44.6905 52.9343 42.5572 54.0707 40.0428L54.0721 40.0399C54.3888 39.3429 54.4457 38.5556 54.2326 37.8203C54.2323 37.8193 54.2321 37.8183 54.2318 37.8173L49.3717 21.375H32.6283Z" fill="#A31886"/>
<path fill-rule="evenodd" clip-rule="evenodd" d="M40.2883 37.1449C33.7856 33.9029 29.4347 35.4578 27.7098 36.3854C26.9346 36.8023 25.9682 36.5117 25.5513 35.7365C25.1345 34.9613 25.425 33.9949 26.2002 33.578C28.6987 32.2345 34.1492 30.5223 41.7111 34.2925L41.7127 34.2933C48.6252 37.7496 53.127 35.7632 54.6121 34.8849C55.3697 34.4368 56.3471 34.6878 56.7952 35.4454C57.2432 36.2031 56.9923 37.1805 56.2347 37.6285C54.0144 38.9416 48.3565 41.1785 40.2883 37.1449Z" fill="#A31886"/>
</g>
<defs>
<clipPath id="clip0_144_3631">
<rect width="80" height="80" fill="white" transform="translate(0.5)"/>
</clipPath>
</defs>
</svg>
