<svg width="126" height="202" viewBox="0 0 126 202" fill="none" xmlns="http://www.w3.org/2000/svg">
<path d="M120.875 196.655H5.11841V4.87402H120.875V196.655ZM6.33066 195.445H119.663V6.08413H6.33066V195.445Z" fill="white"/>
<path d="M25.5919 65.3993V23.8726C26.7727 23.4911 28.0079 23.3049 29.2489 23.3213C42.1257 23.3213 50.6653 31.8458 50.6653 44.6998C50.6653 57.4261 42.1257 65.9506 29.2489 65.9506C28.0079 65.967 26.7727 65.7807 25.5919 65.3993ZM47.0218 44.6998C47.0218 33.7349 40.2871 24.6659 29.2691 24.5314V64.7338C40.2534 64.6733 47.0218 55.5975 47.0218 44.6998Z" fill="white"/>
<path d="M70.6339 63.3959C73.1001 63.3995 75.4672 62.4272 77.2168 60.6921C78.9664 58.957 79.9557 56.6004 79.9682 54.1386V23.3213H81.4296V54.1386C81.4296 57.2874 80.1766 60.3072 77.9461 62.5337C75.7156 64.7602 72.6905 66.0111 69.5361 66.0111C66.3817 66.0111 63.3566 64.7602 61.1261 62.5337C58.8956 60.3072 57.6426 57.2874 57.6426 54.1386V23.3213H61.2861V54.1386C61.3091 56.5995 62.3037 58.9519 64.0539 60.6852C65.8041 62.4184 68.1685 63.3925 70.6339 63.3959Z" fill="white"/>
<path d="M29.451 79.0132V120.184H39.9437L41.1695 121.642H25.7941V79.0132H29.451Z" fill="white"/>
<path d="M63.9799 79.6853C76.85 79.6853 85.3896 88.2098 85.3896 101.064C85.3896 113.79 76.85 122.315 63.9799 122.315C51.2311 122.315 42.6847 113.79 42.6847 101.064C42.6914 88.2098 51.2378 79.6853 63.9799 79.6853ZM58.8009 120.338C69.4148 123.141 78.3316 116.136 81.1265 105.602C83.9214 95.0671 79.7796 84.5324 69.1724 81.6685C58.5652 78.8046 49.709 85.8703 46.9006 96.4587C44.0922 107.047 48.2476 117.501 58.8009 120.338Z" fill="white"/>
<path d="M55.3998 136.049H56.8613V178.679L27.0332 143.357V178.679H25.5919V136.049L55.4268 171.371L55.3998 136.049Z" fill="white"/>
<path d="M94.2054 161.872L95.4244 160.406H100.428V174.295C96.8319 177.092 92.1311 178.679 86.5817 178.679C73.8328 178.679 65.2932 171.794 65.2932 157.428C65.2932 144.574 73.8328 136.049 86.5817 136.049C90.0954 135.988 93.5779 136.716 96.7713 138.18L95.6332 139.585C94.4145 138.931 93.1241 138.419 91.7876 138.059C81.2343 135.256 72.3243 142.261 69.5226 152.85C66.721 163.438 70.8696 173.858 81.4161 176.722C84.0562 177.49 86.8468 177.584 89.5328 176.997C92.2189 176.41 94.7145 175.159 96.7915 173.361V161.872H94.2054Z" fill="white"/>
<path d="M100.57 23.3213H99.3574V121.642H100.57V23.3213Z" fill="white"/>
</svg>
