<svg width="101" height="100" viewBox="0 0 101 100" fill="none" xmlns="http://www.w3.org/2000/svg">
<path fill-rule="evenodd" clip-rule="evenodd" d="M88.0781 20.1953C89.804 20.1953 91.2031 21.5944 91.2031 23.3203V38.9453C91.2031 40.6712 89.804 42.0703 88.0781 42.0703H72.4531C70.7272 42.0703 69.3281 40.6712 69.3281 38.9453C69.3281 37.2194 70.7272 35.8203 72.4531 35.8203H84.9531V23.3203C84.9531 21.5944 86.3522 20.1953 88.0781 20.1953Z" fill="#A31886"/>
<path fill-rule="evenodd" clip-rule="evenodd" d="M56.5862 19.3523C50.5236 18.1445 44.2389 18.7619 38.5273 21.1263C32.8156 23.4908 27.9335 27.4962 24.4986 32.6358C21.0636 37.7754 19.2302 43.8183 19.2302 50C19.2302 56.1818 21.0636 62.2246 24.4986 67.3642C27.9335 72.5038 32.8156 76.5092 38.5273 78.8737C44.2389 81.2382 50.5236 81.8555 56.5862 80.6477C62.6488 79.4398 68.2169 76.461 72.5863 72.0881C73.8062 70.8672 75.7849 70.8664 77.0057 72.0863C78.2266 73.3062 78.2274 75.2848 77.0075 76.5057C71.7643 81.7532 65.0825 85.3278 57.8074 86.7772C50.5322 88.2266 42.9907 87.4858 36.1367 84.6484C29.2827 81.811 23.4241 77.0046 19.3022 70.8371C15.1803 64.6696 12.9802 57.4181 12.9802 50C12.9802 42.5819 15.1803 35.3305 19.3022 29.163C23.4241 22.9954 29.2827 18.189 36.1367 15.3516C42.9907 12.5142 50.5322 11.7734 57.8074 13.2228C65.0817 14.6721 71.7629 18.246 77.0058 23.4926C77.0064 23.4932 77.0053 23.4921 77.0058 23.4926L90.2846 36.7324C91.5068 37.951 91.5097 39.9296 90.2911 41.1518C89.0725 42.374 87.0939 42.3769 85.8717 41.1583L72.5863 27.9119C68.2169 23.539 62.6488 20.5602 56.5862 19.3523Z" fill="#A31886"/>
<path fill-rule="evenodd" clip-rule="evenodd" d="M36.75 58.25C36.75 57.4906 37.3656 56.875 38.125 56.875H53.25C54.0094 56.875 54.625 57.4906 54.625 58.25C54.625 59.0094 54.0094 59.625 53.25 59.625H38.125C37.3656 59.625 36.75 59.0094 36.75 58.25Z" fill="#A31886"/>
<path fill-rule="evenodd" clip-rule="evenodd" d="M42.25 34.875C42.25 34.1156 42.8656 33.5 43.625 33.5H53.9375C56.6725 33.5 59.2956 34.5865 61.2295 36.5205C63.1635 38.4544 64.25 41.0775 64.25 43.8125C64.25 46.5475 63.1635 49.1706 61.2295 51.1045C59.2956 53.0385 56.6725 54.125 53.9375 54.125H45V65.125C45 65.8844 44.3844 66.5 43.625 66.5C42.8656 66.5 42.25 65.8844 42.25 65.125V54.125H38.125C37.3656 54.125 36.75 53.5094 36.75 52.75C36.75 51.9906 37.3656 51.375 38.125 51.375H42.25V34.875ZM45 51.375H53.9375C55.9432 51.375 57.8668 50.5782 59.285 49.16C60.7032 47.7417 61.5 45.8182 61.5 43.8125C61.5 41.8068 60.7032 39.8832 59.285 38.465C57.8668 37.0468 55.9432 36.25 53.9375 36.25H45V51.375Z" fill="#A31886"/>
</svg>
